<svg width="188" height="23" viewBox="0 0 188 23" fill="none" xmlns="http://www.w3.org/2000/svg">
<path d="M12.936 9.24H17.136V16.2C16.176 16.888 15.072 17.416 13.824 17.784C12.576 18.152 11.328 18.336 10.08 18.336C8.32 18.336 6.736 17.968 5.328 17.232C3.92 16.48 2.816 15.44 2.016 14.112C1.216 12.784 0.816 11.28 0.816 9.6C0.816 7.92 1.216 6.416 2.016 5.088C2.816 3.76 3.928 2.728 5.352 1.992C6.776 1.24 8.384 0.863999 10.176 0.863999C11.744 0.863999 13.152 1.128 14.4 1.656C15.648 2.184 16.688 2.944 17.52 3.936L14.496 6.672C13.36 5.424 12 4.8 10.416 4.8C8.976 4.8 7.816 5.24 6.936 6.12C6.056 6.984 5.616 8.144 5.616 9.6C5.616 10.528 5.816 11.36 6.216 12.096C6.616 12.816 7.176 13.384 7.896 13.8C8.616 14.2 9.44 14.4 10.368 14.4C11.28 14.4 12.136 14.216 12.936 13.848V9.24ZM34.0448 11.592C34.0448 11.64 34.0208 11.976 33.9728 12.6H24.2048C24.3808 13.4 24.7968 14.032 25.4528 14.496C26.1088 14.96 26.9248 15.192 27.9008 15.192C28.5728 15.192 29.1648 15.096 29.6768 14.904C30.2048 14.696 30.6928 14.376 31.1408 13.944L33.1328 16.104C31.9168 17.496 30.1408 18.192 27.8048 18.192C26.3488 18.192 25.0608 17.912 23.9408 17.352C22.8208 16.776 21.9568 15.984 21.3488 14.976C20.7408 13.968 20.4368 12.824 20.4368 11.544C20.4368 10.28 20.7328 9.144 21.3248 8.136C21.9328 7.112 22.7568 6.32 23.7968 5.76C24.8528 5.184 26.0288 4.896 27.3248 4.896C28.5888 4.896 29.7328 5.168 30.7568 5.712C31.7808 6.256 32.5808 7.04 33.1568 8.064C33.7488 9.072 34.0448 10.248 34.0448 11.592ZM27.3488 7.728C26.5008 7.728 25.7888 7.968 25.2128 8.448C24.6368 8.928 24.2848 9.584 24.1568 10.416H30.5168C30.3888 9.6 30.0368 8.952 29.4608 8.472C28.8848 7.976 28.1808 7.728 27.3488 7.728ZM50.3854 11.592C50.3854 11.64 50.3614 11.976 50.3134 12.6H40.5454C40.7214 13.4 41.1374 14.032 41.7934 14.496C42.4494 14.96 43.2654 15.192 44.2414 15.192C44.9134 15.192 45.5054 15.096 46.0174 14.904C46.5454 14.696 47.0334 14.376 47.4814 13.944L49.4734 16.104C48.2574 17.496 46.4814 18.192 44.1454 18.192C42.6894 18.192 41.4014 17.912 40.2814 17.352C39.1614 16.776 38.2974 15.984 37.6894 14.976C37.0814 13.968 36.7774 12.824 36.7774 11.544C36.7774 10.28 37.0734 9.144 37.6654 8.136C38.2734 7.112 39.0974 6.32 40.1374 5.76C41.1934 5.184 42.3694 4.896 43.6654 4.896C44.9294 4.896 46.0734 5.168 47.0974 5.712C48.1214 6.256 48.9214 7.04 49.4974 8.064C50.0894 9.072 50.3854 10.248 50.3854 11.592ZM43.6894 7.728C42.8414 7.728 42.1294 7.968 41.5534 8.448C40.9774 8.928 40.6254 9.584 40.4974 10.416H46.8574C46.7294 9.6 46.3774 8.952 45.8014 8.472C45.2254 7.976 44.5214 7.728 43.6894 7.728ZM59.622 12.936L57.822 14.712V18H54.078V0.191999H57.822V10.272L63.294 5.088H67.758L62.382 10.56L68.238 18H63.702L59.622 12.936ZM84.9746 18.336C83.6146 18.336 82.2946 18.168 81.0146 17.832C79.7346 17.496 78.6946 17.048 77.8946 16.488L79.4546 12.984C80.2066 13.48 81.0786 13.88 82.0706 14.184C83.0626 14.488 84.0386 14.64 84.9986 14.64C86.8226 14.64 87.7346 14.184 87.7346 13.272C87.7346 12.792 87.4706 12.44 86.9426 12.216C86.4306 11.976 85.5986 11.728 84.4466 11.472C83.1826 11.2 82.1266 10.912 81.2786 10.608C80.4306 10.288 79.7026 9.784 79.0946 9.096C78.4866 8.408 78.1826 7.48 78.1826 6.312C78.1826 5.288 78.4626 4.368 79.0226 3.552C79.5826 2.72 80.4146 2.064 81.5186 1.584C82.6386 1.104 84.0066 0.863999 85.6226 0.863999C86.7266 0.863999 87.8146 0.991999 88.8866 1.248C89.9586 1.488 90.9026 1.848 91.7186 2.328L90.2546 5.856C88.6546 4.992 87.1026 4.56 85.5986 4.56C84.6546 4.56 83.9666 4.704 83.5346 4.992C83.1026 5.264 82.8866 5.624 82.8866 6.072C82.8866 6.52 83.1426 6.856 83.6546 7.08C84.1666 7.304 84.9906 7.536 86.1266 7.776C87.4066 8.048 88.4626 8.344 89.2946 8.664C90.1426 8.968 90.8706 9.464 91.4786 10.152C92.1026 10.824 92.4146 11.744 92.4146 12.912C92.4146 13.92 92.1346 14.832 91.5746 15.648C91.0146 16.464 90.1746 17.12 89.0546 17.616C87.9346 18.096 86.5746 18.336 84.9746 18.336ZM108.674 5.088L102.842 18.792C102.25 20.28 101.514 21.328 100.634 21.936C99.7697 22.544 98.7217 22.848 97.4897 22.848C96.8177 22.848 96.1537 22.744 95.4977 22.536C94.8417 22.328 94.3057 22.04 93.8897 21.672L95.2577 19.008C95.5457 19.264 95.8737 19.464 96.2417 19.608C96.6257 19.752 97.0017 19.824 97.3697 19.824C97.8817 19.824 98.2977 19.696 98.6177 19.44C98.9377 19.2 99.2257 18.792 99.4817 18.216L99.5297 18.096L93.9377 5.088H97.8017L101.426 13.848L105.074 5.088H108.674ZM119.249 4.896C120.849 4.896 122.137 5.376 123.113 6.336C124.105 7.296 124.601 8.72 124.601 10.608V18H120.857V11.184C120.857 10.16 120.633 9.4 120.185 8.904C119.737 8.392 119.089 8.136 118.241 8.136C117.297 8.136 116.545 8.432 115.985 9.024C115.425 9.6 115.145 10.464 115.145 11.616V18H111.401V5.088H114.977V6.6C115.473 6.056 116.089 5.64 116.825 5.352C117.561 5.048 118.369 4.896 119.249 4.896ZM141.984 11.592C141.984 11.64 141.96 11.976 141.912 12.6H132.144C132.32 13.4 132.736 14.032 133.392 14.496C134.048 14.96 134.864 15.192 135.84 15.192C136.512 15.192 137.104 15.096 137.616 14.904C138.144 14.696 138.632 14.376 139.08 13.944L141.072 16.104C139.856 17.496 138.08 18.192 135.744 18.192C134.288 18.192 133 17.912 131.88 17.352C130.76 16.776 129.896 15.984 129.288 14.976C128.68 13.968 128.376 12.824 128.376 11.544C128.376 10.28 128.672 9.144 129.264 8.136C129.872 7.112 130.696 6.32 131.736 5.76C132.792 5.184 133.968 4.896 135.264 4.896C136.528 4.896 137.672 5.168 138.696 5.712C139.72 6.256 140.52 7.04 141.096 8.064C141.688 9.072 141.984 10.248 141.984 11.592ZM135.288 7.728C134.44 7.728 133.728 7.968 133.152 8.448C132.576 8.928 132.224 9.584 132.096 10.416H138.456C138.328 9.6 137.976 8.952 137.4 8.472C136.824 7.976 136.12 7.728 135.288 7.728ZM149.252 6.792C149.7 6.168 150.3 5.696 151.052 5.376C151.82 5.056 152.7 4.896 153.692 4.896V8.352C153.276 8.32 152.996 8.304 152.852 8.304C151.78 8.304 150.94 8.608 150.332 9.216C149.724 9.808 149.42 10.704 149.42 11.904V18H145.676V5.088H149.252V6.792ZM170.321 5.088V15.84C170.321 18.208 169.705 19.968 168.473 21.12C167.241 22.272 165.441 22.848 163.073 22.848C161.825 22.848 160.641 22.696 159.521 22.392C158.401 22.088 157.473 21.648 156.737 21.072L158.225 18.384C158.769 18.832 159.457 19.184 160.289 19.44C161.121 19.712 161.953 19.848 162.785 19.848C164.081 19.848 165.033 19.552 165.641 18.96C166.265 18.384 166.577 17.504 166.577 16.32V15.768C165.601 16.84 164.241 17.376 162.497 17.376C161.313 17.376 160.225 17.12 159.233 16.608C158.257 16.08 157.481 15.344 156.905 14.4C156.329 13.456 156.041 12.368 156.041 11.136C156.041 9.904 156.329 8.816 156.905 7.872C157.481 6.928 158.257 6.2 159.233 5.688C160.225 5.16 161.313 4.896 162.497 4.896C164.369 4.896 165.793 5.512 166.769 6.744V5.088H170.321ZM163.241 14.304C164.233 14.304 165.041 14.016 165.665 13.44C166.305 12.848 166.625 12.08 166.625 11.136C166.625 10.192 166.305 9.432 165.665 8.856C165.041 8.264 164.233 7.968 163.241 7.968C162.249 7.968 161.433 8.264 160.793 8.856C160.153 9.432 159.833 10.192 159.833 11.136C159.833 12.08 160.153 12.848 160.793 13.44C161.433 14.016 162.249 14.304 163.241 14.304ZM187.822 5.088L181.99 18.792C181.398 20.28 180.662 21.328 179.782 21.936C178.918 22.544 177.87 22.848 176.638 22.848C175.966 22.848 175.302 22.744 174.646 22.536C173.99 22.328 173.454 22.04 173.038 21.672L174.406 19.008C174.694 19.264 175.022 19.464 175.39 19.608C175.774 19.752 176.15 19.824 176.518 19.824C177.03 19.824 177.446 19.696 177.766 19.44C178.086 19.2 178.374 18.792 178.63 18.216L178.678 18.096L173.086 5.088H176.95L180.574 13.848L184.222 5.088H187.822Z" fill="#ffffff"/>
</svg>
